<mxfile host="65bd71144e">
    <diagram id="8AGZZC58pFiJya6Bjqwu" name="Page-1">
        <mxGraphModel dx="1417" dy="917" grid="1" gridSize="10" guides="1" tooltips="1" connect="1" arrows="1" fold="1" page="1" pageScale="1" pageWidth="1200" pageHeight="1920" math="0" shadow="0">
            <root>
                <mxCell id="0"/>
                <mxCell id="1" parent="0"/>
                <mxCell id="3" value="" style="swimlane;startSize=20;horizontal=0;childLayout=treeLayout;horizontalTree=1;resizable=0;containerType=tree;" vertex="1" parent="1">
                    <mxGeometry x="110" y="260" width="930" height="400" as="geometry"/>
                </mxCell>
                <mxCell id="4" value="Autosacling" style="whiteSpace=wrap;html=1;" vertex="1" parent="3">
                    <mxGeometry x="40" y="214" width="100" height="40" as="geometry"/>
                </mxCell>
                <mxCell id="5" value="&lt;font color=&quot;#ffffff&quot;&gt;&lt;b&gt;Cloud CDN&lt;/b&gt;&lt;/font&gt;" style="whiteSpace=wrap;html=1;fillColor=#999999;" vertex="1" parent="3">
                    <mxGeometry x="190" y="130" width="100" height="40" as="geometry"/>
                </mxCell>
                <mxCell id="6" value="" style="edgeStyle=elbowEdgeStyle;elbow=horizontal;html=1;rounded=0;" edge="1" parent="3" source="4" target="5">
                    <mxGeometry relative="1" as="geometry"/>
                </mxCell>
                <mxCell id="7" value="Child 2" style="whiteSpace=wrap;html=1;" vertex="1" parent="3">
                    <mxGeometry x="190" y="298" width="100" height="40" as="geometry"/>
                </mxCell>
                <mxCell id="8" value="" style="edgeStyle=elbowEdgeStyle;elbow=horizontal;html=1;rounded=0;" edge="1" parent="3" source="4" target="7">
                    <mxGeometry relative="1" as="geometry"/>
                </mxCell>
                <mxCell id="9" value="" style="edgeStyle=elbowEdgeStyle;elbow=horizontal;html=1;rounded=0;" edge="1" target="10" source="5" parent="3">
                    <mxGeometry relative="1" as="geometry">
                        <mxPoint x="250" y="-76.19999999999996" as="sourcePoint"/>
                    </mxGeometry>
                </mxCell>
                <mxCell id="10" value="&lt;font color=&quot;#ffffff&quot;&gt;&lt;b&gt;Cloud CDN caches content at the edge of Google's network providinf faster delivery of contenet to your users while reducing serving costs&lt;/b&gt;&lt;/font&gt;" style="whiteSpace=wrap;html=1;fillColor=#009900;" vertex="1" parent="3">
                    <mxGeometry x="340" y="20" width="260" height="70" as="geometry"/>
                </mxCell>
                <mxCell id="11" value="" style="edgeStyle=elbowEdgeStyle;elbow=horizontal;html=1;rounded=0;" edge="1" target="12" source="5" parent="3">
                    <mxGeometry relative="1" as="geometry">
                        <mxPoint x="400" y="-38.79999999999998" as="sourcePoint"/>
                    </mxGeometry>
                </mxCell>
                <mxCell id="12" value="&lt;font color=&quot;#ffffff&quot;&gt;&lt;b&gt;Cache mode&lt;/b&gt;&lt;/font&gt;" style="whiteSpace=wrap;html=1;fillColor=#999999;" vertex="1" parent="3">
                    <mxGeometry x="340" y="230" width="100" height="50" as="geometry"/>
                </mxCell>
                <mxCell id="13" value="" style="edgeStyle=elbowEdgeStyle;elbow=horizontal;html=1;rounded=0;" edge="1" target="14" source="12" parent="3">
                    <mxGeometry relative="1" as="geometry">
                        <mxPoint x="400" y="81.20000000000002" as="sourcePoint"/>
                    </mxGeometry>
                </mxCell>
                <mxCell id="14" value="&lt;font color=&quot;#ffffff&quot;&gt;&lt;b&gt;USE_ORIGIN_HEADERS&lt;/b&gt;&lt;/font&gt;" style="whiteSpace=wrap;html=1;fillColor=#999999;" vertex="1" parent="3">
                    <mxGeometry x="490" y="130" width="170" height="50" as="geometry"/>
                </mxCell>
                <mxCell id="15" value="" style="edgeStyle=elbowEdgeStyle;elbow=horizontal;html=1;rounded=0;" edge="1" target="16" source="14" parent="3">
                    <mxGeometry relative="1" as="geometry">
                        <mxPoint x="550" y="136.2" as="sourcePoint"/>
                    </mxGeometry>
                </mxCell>
                <mxCell id="16" value="&lt;font color=&quot;#ffffff&quot;&gt;&lt;b&gt;Requires origin responses to set valid cache directives and valid caching headers&lt;/b&gt;&lt;/font&gt;" style="whiteSpace=wrap;html=1;fillColor=#999999;" vertex="1" parent="3">
                    <mxGeometry x="710" y="130" width="200" height="50" as="geometry"/>
                </mxCell>
                <mxCell id="17" value="" style="edgeStyle=elbowEdgeStyle;elbow=horizontal;html=1;rounded=0;" edge="1" target="18" source="12" parent="3">
                    <mxGeometry relative="1" as="geometry">
                        <mxPoint x="550" y="136.2" as="sourcePoint"/>
                    </mxGeometry>
                </mxCell>
                <mxCell id="18" value="&lt;font color=&quot;#ffffff&quot;&gt;&lt;b&gt;CACHE_ALL_STATIC&lt;/b&gt;&lt;/font&gt;" style="whiteSpace=wrap;html=1;fillColor=#999999;" vertex="1" parent="3">
                    <mxGeometry x="490" y="230" width="170" height="50" as="geometry"/>
                </mxCell>
                <mxCell id="19" value="" style="edgeStyle=elbowEdgeStyle;elbow=horizontal;html=1;rounded=0;" edge="1" target="20" source="18" parent="3">
                    <mxGeometry relative="1" as="geometry">
                        <mxPoint x="550" y="305.20000000000005" as="sourcePoint"/>
                    </mxGeometry>
                </mxCell>
                <mxCell id="20" value="&lt;font color=&quot;#ffffff&quot;&gt;&lt;b&gt;Automatically caches static content that doesn't have the no-store,private, or no-cache directive&lt;/b&gt;&lt;/font&gt;" style="whiteSpace=wrap;html=1;fillColor=#999999;" vertex="1" parent="3">
                    <mxGeometry x="710" y="220" width="200" height="70" as="geometry"/>
                </mxCell>
                <mxCell id="21" value="" style="edgeStyle=elbowEdgeStyle;elbow=horizontal;html=1;rounded=0;" edge="1" target="22" source="12" parent="3">
                    <mxGeometry relative="1" as="geometry">
                        <mxPoint x="550" y="307.30000000000007" as="sourcePoint"/>
                    </mxGeometry>
                </mxCell>
                <mxCell id="22" value="&lt;font color=&quot;#ffffff&quot;&gt;&lt;b&gt;FORCE_CACHE_ALL&lt;/b&gt;&lt;/font&gt;" style="whiteSpace=wrap;html=1;fillColor=#999999;" vertex="1" parent="3">
                    <mxGeometry x="490" y="330" width="170" height="50" as="geometry"/>
                </mxCell>
                <mxCell id="23" value="" style="edgeStyle=elbowEdgeStyle;elbow=horizontal;html=1;rounded=0;" edge="1" target="24" source="22" parent="3">
                    <mxGeometry relative="1" as="geometry">
                        <mxPoint x="550" y="514.7" as="sourcePoint"/>
                    </mxGeometry>
                </mxCell>
                <mxCell id="24" value="&lt;font color=&quot;#ffffff&quot;&gt;&lt;b&gt;FORCE_CACHE_ALL&lt;/b&gt;&lt;/font&gt;" style="whiteSpace=wrap;html=1;fillColor=#999999;" vertex="1" parent="3">
                    <mxGeometry x="710" y="330" width="200" height="50" as="geometry"/>
                </mxCell>
            </root>
        </mxGraphModel>
    </diagram>
</mxfile>